# xmcd
#
# Track frame offsets:
#	150
#	17888
#	30943
#	44850
#	62202
#	83464
#	100800
#	116392
#	131733
#	147871
#	162024
#	175356
#	189616
#	213543
#	231033
#	248706
#
# Disc length: 3521
#
# Revision: 3
# Processed by: cddbd v1.5.1PL0 Copyright (c) Steve Scherf et al.
# Submitted via: CDex 1.51
# Normalized: r2:TDELIM( - )
#
DISCID=d80dbf10
DTITLE=Gay tv Compilation - Movin Out CD2
DYEAR=2004
DGENRE=
TTITLE0=The Rasmus - In The Shadow
TTITLE1=B2K - Girlfriend (Pied Piper Remix)
TTITLE2=Sugar Daddy - Sweet Soca Music
TTITLE3=Cyndi Lauper - Hey Now
TTITLE4=Macy Gray - Sexual Revolution
TTITLE5=Anastacia - I'm Outta Love
TTITLE6=Woman's Revolution - A Woman's Revolution
TTITLE7=Dale Harden - Gimme More
TTITLE8=Vanessa St.James and Lou Reed - Sunday Morning
TTITLE9=Dead or Alive - You Spin Me Round
TTITLE10=Tina Cherles - I Love To Love
TTITLE11=Paolo Menguzzi - Verofalso
TTITLE12=Diana Ross - I'm Coming Out
TTITLE13=Patti Labelle - Lady Marmalade
TTITLE14=Wham! - I'm Your Man
TTITLE15=Bangles - Walk Like An Egyptian
EXTD=YEAR: 2004
EXTT0=
EXTT1=
EXTT2=
EXTT3=
EXTT4=
EXTT5=
EXTT6=
EXTT7=
EXTT8=
EXTT9=
EXTT10=
EXTT11=
EXTT12=
EXTT13=
EXTT14=
EXTT15=
PLAYORDER=
